<svg width="41" height="42" viewBox="0 0 41 42" fill="none" xmlns="http://www.w3.org/2000/svg">
<g clip-path="url(#clip0_105_25)">
<path d="M25.4115 38.5V31.7275C25.4755 30.893 25.3655 30.0542 25.0886 29.2666C24.8117 28.4791 24.3744 27.761 23.8056 27.16C29.1698 26.5475 34.8073 24.465 34.8073 14.91C34.8069 12.4667 33.8894 10.1171 32.2448 8.34751C33.0235 6.2099 32.9685 3.84712 32.091 1.75001C32.091 1.75001 30.0752 1.13751 25.4115 4.34001C21.496 3.25295 17.3686 3.25295 13.4531 4.34001C8.78937 1.13751 6.77354 1.75001 6.77354 1.75001C5.8961 3.84712 5.84104 6.2099 6.61979 8.34751C4.96292 10.1302 4.04452 12.5011 4.05729 14.9625C4.05729 24.4475 9.69479 26.53 15.059 27.2125C14.4969 27.8075 14.0634 28.517 13.7868 29.2949C13.5101 30.0728 13.3964 30.9016 13.4531 31.7275V38.5M13.4531 33.25C4.91146 35.875 4.91146 28.875 1.49479 28L13.4531 33.25Z" stroke="white" stroke-width="3" stroke-linecap="round" stroke-linejoin="round"/>
</g>
<defs>
<clipPath id="clip0_105_25">
<rect width="41" height="42" fill="white"/>
</clipPath>
</defs>
</svg>
