<svg width="57" height="56" viewBox="0 0 57 56" fill="none" xmlns="http://www.w3.org/2000/svg">
<path d="M33.25 4.66669H14.25C12.9902 4.66669 11.782 5.15835 10.8912 6.03352C10.0004 6.90869 9.5 8.09568 9.5 9.33335V46.6667C9.5 47.9044 10.0004 49.0914 10.8912 49.9665C11.782 50.8417 12.9902 51.3334 14.25 51.3334H42.75C44.0098 51.3334 45.218 50.8417 46.1088 49.9665C46.9996 49.0914 47.5 47.9044 47.5 46.6667V18.6667L33.25 4.66669Z" stroke="white" stroke-width="3" stroke-linecap="round" stroke-linejoin="round"/>
<path d="M33.25 4.66669V18.6667H47.5" stroke="white" stroke-width="3" stroke-linecap="round" stroke-linejoin="round"/>
<path d="M38 30.3333H19" stroke="white" stroke-width="3" stroke-linecap="round" stroke-linejoin="round"/>
<path d="M38 39.6667H19" stroke="white" stroke-width="3" stroke-linecap="round" stroke-linejoin="round"/>
<path d="M23.75 21H21.375H19" stroke="white" stroke-width="3" stroke-linecap="round" stroke-linejoin="round"/>
</svg>
