<svg width="41" height="42" viewBox="0 0 41 42" fill="none" xmlns="http://www.w3.org/2000/svg">
<path d="M29.0417 3.5H11.9583C7.2409 3.5 3.41667 7.41751 3.41667 12.25V29.75C3.41667 34.5825 7.2409 38.5 11.9583 38.5H29.0417C33.7591 38.5 37.5833 34.5825 37.5833 29.75V12.25C37.5833 7.41751 33.7591 3.5 29.0417 3.5Z" stroke="white" stroke-width="3" stroke-linecap="round" stroke-linejoin="round"/>
<path d="M27.3333 19.8975C27.5442 21.3539 27.3013 22.8414 26.6394 24.1483C25.9774 25.4552 24.93 26.515 23.6461 27.1769C22.3623 27.8389 20.9074 28.0693 19.4883 27.8354C18.0693 27.6014 16.7584 26.9151 15.742 25.874C14.7257 24.8329 14.0557 23.49 13.8274 22.0364C13.599 20.5827 13.824 19.0923 14.4702 17.7771C15.1164 16.462 16.1509 15.389 17.4267 14.7109C18.7025 14.0328 20.1545 13.784 21.5763 14C23.0265 14.2203 24.3691 14.9125 25.4058 15.9745C26.4425 17.0365 27.1183 18.4119 27.3333 19.8975Z" stroke="white" stroke-width="3" stroke-linecap="round" stroke-linejoin="round"/>
<path d="M29.8958 11.375H29.9137" stroke="white" stroke-width="3" stroke-linecap="round" stroke-linejoin="round"/>
</svg>
