<svg width="41" height="42" viewBox="0 0 41 42" fill="none" xmlns="http://www.w3.org/2000/svg">
<path d="M27.3333 14C30.0518 14 32.6589 15.1062 34.5812 17.0754C36.5034 19.0445 37.5833 21.7152 37.5833 24.5V36.75H30.75V24.5C30.75 23.5717 30.39 22.6815 29.7493 22.0251C29.1085 21.3687 28.2395 21 27.3333 21C26.4272 21 25.5581 21.3687 24.9174 22.0251C24.2766 22.6815 23.9167 23.5717 23.9167 24.5V36.75H17.0833V24.5C17.0833 21.7152 18.1632 19.0445 20.0855 17.0754C22.0077 15.1062 24.6149 14 27.3333 14V14Z" stroke="#E3E3E3" stroke-width="3" stroke-linecap="round" stroke-linejoin="round"/>
<path d="M10.25 15.75H3.41666V36.75H10.25V15.75Z" stroke="#E3E3E3" stroke-width="3" stroke-linecap="round" stroke-linejoin="round"/>
<path d="M6.83333 10.5C8.7203 10.5 10.25 8.933 10.25 7C10.25 5.067 8.7203 3.5 6.83333 3.5C4.94636 3.5 3.41666 5.067 3.41666 7C3.41666 8.933 4.94636 10.5 6.83333 10.5Z" stroke="#E3E3E3" stroke-width="3" stroke-linecap="round" stroke-linejoin="round"/>
</svg>
